<?xml version="1.0" standalone="no"?>
<!DOCTYPE svg PUBLIC "-//W3C//DTD SVG 1.1//EN" "http://www.w3.org/Graphics/SVG/1.1/DTD/svg11.dtd">
<svg t="1730166165682" class="icon" viewBox="0 0 1024 1024" version="1.1" xmlns="http://www.w3.org/2000/svg" p-id="1304" width="200" height="200"><path d="M910.222222 910.222222H113.777778v-170.666666H0v170.666666c0 62.577778 51.2 113.777778 113.777778 113.777778h796.444444c62.577778 0 113.777778-51.2 113.777778-113.777778v-170.666666h-113.777778v170.666666z m41.528889-646.257778L608.711111 27.875556C579.128889 9.102222 539.875556 0 512 0S444.871111 9.102222 415.288889 27.875556L72.248889 263.964444C25.6 294.115556 0 342.471111 0 398.222222v341.333334h113.777778V421.546667c0-34.133333 15.36-60.871111 41.528889-79.644445l303.217777-212.195555C473.315556 118.897778 493.226667 113.777778 512 113.777778c18.773333 0 38.684444 5.12 53.475556 15.928889l303.217777 212.195555c26.168889 18.773333 41.528889 45.511111 41.528889 79.644445V739.555556h113.777778V398.222222c0-55.751111-25.6-104.106667-72.248889-134.257778zM682.666667 682.666667c31.288889 0 56.888889-25.6 56.888889-56.888889s-25.6-56.888889-56.888889-56.888889H341.333333c-31.288889 0-56.888889 25.6-56.888889 56.888889s25.6 56.888889 56.888889 56.888889h341.333334z"  p-id="1305"></path></svg>
