<svg t="1734781426206" class="icon" viewBox="0 0 1024 1024" version="1.1" xmlns="http://www.w3.org/2000/svg" p-id="31441" width="200" height="200"><path d="M831.744 960H191.872A127.488 127.488 0 0 1 64 833.28V190.72A127.488 127.488 0 0 1 191.872 64h640.256A127.488 127.488 0 0 1 960 190.72v642.944A127.744 127.744 0 0 1 831.744 960zM178.688 128a50.944 50.944 0 0 0-35.84 14.72 49.792 49.792 0 0 0-14.848 35.392v667.776c0 13.312 5.312 26.048 14.848 35.456 9.472 9.408 22.4 14.72 35.84 14.656h666.624c13.44 0 26.368-5.248 35.84-14.72a49.792 49.792 0 0 0 14.848-35.392V178.112a49.792 49.792 0 0 0-14.848-35.456 50.944 50.944 0 0 0-35.84-14.656H178.688z m103.808 224h459.008a64 64 0 0 1 45.248 109.248l-229.504 229.504a64 64 0 0 1-90.496 0L237.248 461.248A64 64 0 0 1 282.496 352z"  p-id="31442"></path></svg>