<svg t="1734703062997" class="icon" viewBox="0 0 1024 1024" version="1.1" xmlns="http://www.w3.org/2000/svg" p-id="18352" width="200" height="200"><path d="M806.97 617.845v2.01c-0.18 0.08-0.36 0.16-0.53 0.23a45.992 45.992 0 0 1-6.4 14.03c-49.65 102.86-154.932 173.84-276.806 173.84-169.664 0-307.2-137.54-307.2-307.19 0-121.87 70.975-227.15 173.841-276.79a45.717 45.717 0 0 1 14.058-6.4c0.075-0.18 0.154-0.35 0.228-0.53h2a46.09 46.09 0 0 1 53.038 60.41 235.507 235.507 0 0 0-7.628 59.47c0 130.08 105.444 235.53 235.516 235.53a235.763 235.763 0 0 0 58.943-7.45 45.8 45.8 0 0 1 7.126-1.97c0.27-0.07 0.54-0.15 0.81-0.23v0.09a46.057 46.057 0 0 1 54 45.39 46.42 46.42 0 0 1-0.996 9.56z m-119.892 26.29c-169.664 0-307.2-137.53-307.2-307.2q0-11.97 0.9-23.73a235.166 235.166 0 0 0-93.06 187.56c0 130.08 105.444 235.53 235.516 235.53a235.11 235.11 0 0 0 187.537-93.06q-11.728 0.9-23.693 0.9z" p-id="18353"></path></svg>