<?xml version="1.0" standalone="no"?><!DOCTYPE svg PUBLIC "-//W3C//DTD SVG 1.1//EN" "http://www.w3.org/Graphics/SVG/1.1/DTD/svg11.dtd"><svg t="1728866942779" class="icon" viewBox="0 0 1024 1024" version="1.1" xmlns="http://www.w3.org/2000/svg" p-id="1359" xmlns:xlink="http://www.w3.org/1999/xlink" width="200" height="200"><path d="M902.656 390.144h-1.536a122.5728 122.5728 0 0 1-110.08-177.152 410.624 410.624 0 0 0-169.472-94.72 123.0848 123.0848 0 0 1-219.136 0c-64 17.92-121.856 50.688-169.472 94.72A122.5728 122.5728 0 0 1 122.88 390.144h-1.536c-12.288 38.912-18.944 79.872-18.944 122.88 0 28.16 3.072 55.808 8.192 82.432 4.096-0.512 8.192-0.512 12.288-0.512 68.096 0 122.88 54.784 122.88 122.88 0 30.208-10.752 57.856-28.672 79.36a409.6 409.6 0 0 0 178.176 108.544 123.136 123.136 0 0 1 234.496 0c68.608-20.48 129.536-58.368 178.176-108.544-17.92-21.504-28.672-49.152-28.672-79.36 0-68.096 54.784-122.88 122.88-122.88 4.096 0 8.192 0 12.288 0.512 5.632-26.624 8.192-54.272 8.192-82.432a440.832 440.832 0 0 0-19.968-122.88zM512 675.84c-90.624 0-163.84-73.216-163.84-163.84S421.376 348.16 512 348.16c90.624 0 163.84 73.216 163.84 163.84s-73.216 163.84-163.84 163.84z" p-id="1360"></path></svg>