<?xml version="1.0" standalone="no"?><!DOCTYPE svg PUBLIC "-//W3C//DTD SVG 1.1//EN" "http://www.w3.org/Graphics/SVG/1.1/DTD/svg11.dtd"><svg t="1730119264063" class="icon" viewBox="0 0 1024 1024" version="1.1" xmlns="http://www.w3.org/2000/svg" p-id="1031" xmlns:xlink="http://www.w3.org/1999/xlink" width="200" height="200"><path d="M739.555556 512c94.435556 0 170.666667-76.231111 170.666666-170.666667s-76.231111-170.666667-170.666666-170.666666-170.666667 76.231111-170.666667 170.666666 76.231111 170.666667 170.666667 170.666667z m0-227.555556c31.288889 0 56.888889 25.6 56.888888 56.888889s-25.6 56.888889-56.888888 56.888889-56.888889-25.6-56.888889-56.888889 25.6-56.888889 56.888889-56.888889z m56.888888 284.444445c-62.577778 0-113.777778 51.2-113.777777 113.777778v227.555555c0 62.577778 51.2 113.777778 113.777777 113.777778h113.777778c62.577778 0 113.777778-51.2 113.777778-113.777778v-113.777778c0-125.724444-101.831111-227.555556-227.555556-227.555555z m113.777778 341.333333h-113.777778v-227.555555c62.577778 0 113.777778 51.2 113.777778 113.777777v113.777778zM312.888889 398.222222C422.684444 398.222222 512 308.906667 512 199.111111S422.684444 0 312.888889 0 113.777778 89.315556 113.777778 199.111111 203.093333 398.222222 312.888889 398.222222z m0-284.444444C360.106667 113.777778 398.222222 151.893333 398.222222 199.111111S360.106667 284.444444 312.888889 284.444444 227.555556 246.328889 227.555556 199.111111 265.671111 113.777778 312.888889 113.777778zM398.222222 455.111111H227.555556c-125.724444 0-227.555556 101.831111-227.555556 227.555556v227.555555c0 62.577778 51.2 113.777778 113.777778 113.777778h398.222222c62.577778 0 113.777778-51.2 113.777778-113.777778v-227.555555c0-125.724444-101.831111-227.555556-227.555556-227.555556z m113.777778 455.111111H113.777778v-227.555555c0-62.577778 51.2-113.777778 113.777778-113.777778h170.666666c62.577778 0 113.777778 51.2 113.777778 113.777778v227.555555z" p-id="1032"></path></svg>